<svg xmlns="http://www.w3.org/2000/svg" viewBox="0 0 512 512">
  <defs>
    <linearGradient id="bg" x1="72" y1="34" x2="456" y2="478" gradientUnits="userSpaceOnUse">
      <stop offset="0" stop-color="#0F766E"/>
      <stop offset="0.56" stop-color="#115E59"/>
      <stop offset="1" stop-color="#0F172A"/>
    </linearGradient>
    <linearGradient id="line" x1="134" y1="325" x2="385" y2="182" gradientUnits="userSpaceOnUse">
      <stop offset="0" stop-color="#FBBF24"/>
      <stop offset="1" stop-color="#F97316"/>
    </linearGradient>
    <filter id="shadow" x="-20%" y="-20%" width="140%" height="150%">
      <feDropShadow dx="0" dy="18" stdDeviation="18" flood-color="#031B1A" flood-opacity="0.32"/>
    </filter>
  </defs>
  <rect width="512" height="512" rx="116" fill="url(#bg)"/>
  <rect x="104" y="118" width="304" height="276" rx="46" fill="#F8FAFC" filter="url(#shadow)"/>
  <rect x="140" y="160" width="90" height="44" rx="22" fill="#E0F2F1"/>
  <g stroke="#0F766E" stroke-width="9" stroke-linecap="round" stroke-linejoin="round">
    <path d="M160 172l17 18 17-18" fill="none"/>
    <path d="M177 190v24"/>
    <path d="M163 194h28"/>
    <path d="M163 207h28"/>
  </g>
  <g stroke="#CBD5E1" stroke-width="8" stroke-linecap="round">
    <path d="M142 342h228"/>
    <path d="M142 274h228" opacity="0.72"/>
    <path d="M142 206h228" opacity="0.46"/>
  </g>
  <path d="M142 319L190 286L237 304L285 238L331 255L382 189" fill="none" stroke="url(#line)" stroke-width="28" stroke-linecap="round" stroke-linejoin="round"/>
  <g fill="#0F766E" stroke="#F8FAFC" stroke-width="10">
    <circle cx="190" cy="286" r="15"/>
    <circle cx="285" cy="238" r="15"/>
    <circle cx="382" cy="189" r="18"/>
  </g>
  <path d="M354 189h28v28" fill="none" stroke="#F97316" stroke-width="18" stroke-linecap="round" stroke-linejoin="round"/>
  <rect x="122" y="365" width="94" height="18" rx="9" fill="#0F766E" opacity="0.9"/>
  <rect x="232" y="365" width="58" height="18" rx="9" fill="#F59E0B" opacity="0.9"/>
</svg>
